HIERARCHY
ROOT Hips
{
 OFFSET 0.000000 0.000000 0.000000
 CHANNELS 6 Xposition Yposition Zposition Yrotation Xrotation Zrotation
 JOINT Chest
 {
  OFFSET 0.000000 10.354800 0.006500
  CHANNELS 3 Yrotation Xrotation Zrotation
  JOINT Chest2
  {
   OFFSET 0.000000 10.435800 -0.013200
   CHANNELS 3 Yrotation Xrotation Zrotation
   JOINT Chest3
   {
    OFFSET 0.000000 10.393700 0.000000
    CHANNELS 3 Yrotation Xrotation Zrotation
    JOINT Chest4
    {
     OFFSET 0.000000 10.383100 0.000000
     CHANNELS 3 Yrotation Xrotation Zrotation
     JOINT Neck
     {
      OFFSET 0.000000 15.694000 0.000000
      CHANNELS 3 Yrotation Xrotation Zrotation
      JOINT Head
      {
       OFFSET 0.000000 9.711000 -0.028000
       CHANNELS 3 Yrotation Xrotation Zrotation
       End Site
       {
        OFFSET 0.000000 18.578700 -0.014800
       }
      }
     }
     JOINT RightCollar
     {
      OFFSET -3.157200 10.367500 0.000000
      CHANNELS 3 Yrotation Xrotation Zrotation
      JOINT RightShoulder
      {
       OFFSET -14.482500 0.000000 0.000000
       CHANNELS 3 Yrotation Xrotation Zrotation
       JOINT RightElbow
       {
        OFFSET 0.000000 -31.707800 0.000000
        CHANNELS 3 Yrotation Xrotation Zrotation
        JOINT RightWrist
        {
         OFFSET 0.000000 -25.659300 0.000000
         CHANNELS 3 Yrotation Xrotation Zrotation
         End Site
         {
          OFFSET 0.000000 -18.994300 0.000000
         }
        }
       }
      }
     }
     JOINT LeftCollar
     {
      OFFSET 3.157200 10.367500 0.000000
      CHANNELS 3 Yrotation Xrotation Zrotation
      JOINT LeftShoulder
      {
       OFFSET 14.482500 0.000000 0.000000
       CHANNELS 3 Yrotation Xrotation Zrotation
       JOINT LeftElbow
       {
        OFFSET 0.000000 -31.707800 0.000000
        CHANNELS 3 Yrotation Xrotation Zrotation
        JOINT LeftWrist
        {
         OFFSET 0.000000 -25.659300 0.000000
         CHANNELS 3 Yrotation Xrotation Zrotation
         End Site
         {
          OFFSET 0.000000 -18.994300 0.000000
         }
        }
       }
      }
     }
    }
   }
  }
 }
 JOINT RightHip
 {
  OFFSET -8.365600 -0.032100 -0.003200
  CHANNELS 3 Yrotation Xrotation Zrotation
  JOINT RightKnee
  {
   OFFSET 0.000000 -43.980000 0.003100
   CHANNELS 3 Yrotation Xrotation Zrotation
   JOINT RightAnkle
   {
    OFFSET 0.000000 -42.882800 0.005200
    CHANNELS 3 Yrotation Xrotation Zrotation
    JOINT RightToe
    {
     OFFSET 0.000000 -4.915500 10.826300
     CHANNELS 3 Yrotation Xrotation Zrotation
     End Site
     {
      OFFSET 0.000000 -1.517500 6.175900
     }
    }
   }
  }
 }
 JOINT LeftHip
 {
  OFFSET 8.365600 -0.032100 -0.003200
  CHANNELS 3 Yrotation Xrotation Zrotation
  JOINT LeftKnee
  {
   OFFSET 0.000000 -43.980000 0.003100
   CHANNELS 3 Yrotation Xrotation Zrotation
   JOINT LeftAnkle
   {
    OFFSET 0.000000 -42.882800 0.005200
    CHANNELS 3 Yrotation Xrotation Zrotation
    JOINT LeftToe
    {
     OFFSET 0.000000 -4.915500 10.826300
     CHANNELS 3 Yrotation Xrotation Zrotation
     End Site
     {
      OFFSET 0.000000 -1.517500 6.175900
     }
    }
   }
  }
 }
}
MOTION
Frames: 8
Frame Time: 0.008333
-10.412086 126.400150 26.205296 177.945625 -19.083900 -2.632548 -2.136586 9.345767 1.239235 -0.177112 0.524100 0.093388 -0.176666 0.952155 0.128417 -2.121596 8.688954 1.203188 0.513862 20.585211 -3.346532 1.194145 -3.803001 -3.617689 9.639395 1.199659 -11.922296 23.999923 -47.232872 -44.774611 175.225688 -80.151963 174.541866 -17.379602 -14.149195 -30.631765 -3.830956 4.480010 7.736283 1.608673 -57.511552 18.966286 -152.453061 -72.422979 172.808238 8.819893 -20.159013 38.443256 15.160099 -59.806496 -13.157502 -129.753271 73.375724 -124.301194 -0.514911 -19.153100 5.837474 0.010015 -0.008397 0.004547 -21.872019 -58.553509 14.760606 133.794539 78.593256 130.586231 -2.404730 -18.390978 -4.488280 -0.022543 -0.007207 -0.010234
-10.424438 126.396187 26.194183 178.002645 -19.021819 -2.632583 -2.107388 9.317965 1.214392 -0.212858 0.507342 0.103797 -0.178157 0.947594 0.128458 -1.968383 8.672622 1.164263 0.414346 20.392079 -3.298984 1.171043 -4.027719 -3.605354 9.244854 1.170777 -11.946061 23.294231 -46.988662 -44.680034 174.392006 -79.558120 175.813361 -17.266327 -14.325936 -30.367245 -3.722166 4.541993 7.791494 1.803776 -57.322676 18.921777 -151.786721 -71.902036 171.879836 8.708770 -20.231413 37.924695 15.180897 -59.905346 -13.253025 -129.846104 73.331807 -124.384926 -0.490023 -19.135536 5.820954 0.020272 -0.027525 0.009201 -21.715804 -58.699778 14.649843 133.854355 78.586283 130.655620 -2.560510 -18.371945 -4.351682 -0.053907 -0.013913 -0.024470
-10.431269 126.394198 26.184392 178.079416 -18.977666 -2.672744 -2.101494 9.305370 1.223505 -0.145675 0.527934 0.087175 -0.275098 0.910079 0.154924 -1.902986 8.668757 1.153743 0.382648 20.203451 -3.287467 1.160266 -4.242767 -3.600834 8.945460 1.166054 -11.994851 22.565217 -46.780174 -44.445039 173.710537 -78.989515 176.981781 -17.108959 -14.578249 -30.102529 -3.547645 4.617320 7.787700 2.032119 -57.079758 18.808380 -151.301850 -71.400264 171.065151 8.592054 -20.259213 37.492137 15.099857 -59.965842 -13.264896 -129.884777 73.304971 -124.406296 -0.450829 -19.155721 5.810810 0.016509 -0.019791 0.007494 -21.593288 -58.821837 14.569120 133.939757 78.580763 130.745074 -2.607211 -18.337728 -4.252960 -0.047450 -0.008090 -0.021541
-10.435697 126.393374 26.177260 178.167602 -18.944472 -2.732084 -2.126290 9.294990 1.252205 -0.127129 0.534141 0.081833 -0.272380 0.909424 0.150000 -1.937521 8.650798 1.174386 0.404686 20.036605 -3.297964 1.156993 -4.443571 -3.603826 8.718957 1.201156 -12.055175 21.817089 -46.620478 -44.067103 173.105777 -78.454338 178.114299 -16.895960 -14.872725 -29.852198 -3.336888 4.735783 7.746088 2.327361 -56.790679 18.614237 -151.094954 -70.936506 170.453215 8.443336 -20.225184 37.159305 14.972994 -60.011087 -13.236798 -129.913543 73.275681 -124.414087 -0.420247 -19.193835 5.810271 0.008050 -0.007724 0.003655 -21.478673 -58.926270 14.496291 134.009032 78.572781 130.817888 -2.630472 -18.302215 -4.156126 -0.017368 0.001211 -0.007886
-10.441803 126.394301 26.169990 178.248552 -18.939659 -2.779660 -2.181413 9.299909 1.273480 -0.127147 0.534019 0.082009 -0.219877 0.925039 0.141445 -1.973097 8.637681 1.187354 0.418374 19.885863 -3.308876 1.160931 -4.626067 -3.613761 8.503952 1.256380 -12.096515 21.059997 -46.499112 -43.543821 172.523182 -77.960414 179.263528 -16.630864 -15.202550 -29.626504 -3.161759 4.898156 7.702226 2.710193 -56.450887 18.324043 -151.182099 -70.524083 170.057623 8.282006 -20.151991 36.910163 14.859324 -60.019760 -13.204567 -129.930191 73.238065 -124.407721 -0.399826 -19.230710 5.801116 0.015335 -0.002821 0.006962 -21.313900 -59.001841 14.386285 134.057324 78.562188 130.875643 -2.691141 -18.260025 -4.057323 -0.010789 0.007679 -0.004899
-10.450394 126.396476 26.163705 178.329940 -18.957186 -2.811654 -2.195598 9.334919 1.279227 -0.127930 0.534702 0.082777 -0.192442 0.927017 0.139879 -2.009688 8.640188 1.200676 0.403573 19.735689 -3.318189 1.175512 -4.789085 -3.632419 8.291113 1.312983 -12.109856 20.308559 -46.400285 -42.890130 172.084173 -77.517827 -179.689544 -16.311854 -15.581273 -29.407408 -3.037915 5.086734 7.670863 3.164498 -56.047025 17.933834 -151.509294 -70.161467 169.836509 8.142594 -20.056591 36.705083 14.741681 -59.997682 -13.197608 -129.994140 73.218865 -124.454923 -0.361798 -19.273046 5.781172 0.015723 0.001587 0.007139 -21.103354 -59.054428 14.235593 134.114903 78.553804 130.950853 -2.871200 -18.228927 -3.941088 -0.012751 0.013646 -0.005791
-10.463406 126.401076 26.154517 178.417793 -19.019515 -2.816833 -2.197119 9.380599 1.258172 -0.141358 0.542259 0.084689 -0.224659 0.936254 0.144118 -2.026253 8.656914 1.207499 0.401106 19.597586 -3.334341 1.201495 -4.934214 -3.660665 8.132649 1.395894 -12.098525 19.575994 -46.322854 -42.140724 171.880493 -77.153575 -178.838959 -15.969162 -16.065984 -29.141852 -2.921841 5.306523 7.645186 3.664588 -55.574479 17.434173 -151.978249 -69.850667 169.685458 8.039666 -19.970734 36.521322 14.626689 -59.914517 -13.230650 -130.096310 73.222156 -124.541891 -0.325401 -19.330777 5.754407 0.019556 0.012472 0.008880 -20.816061 -59.067155 14.004061 134.209596 78.555966 131.073386 -3.165551 -18.232150 -3.773536 -0.044637 0.025576 -0.020274
-10.475552 126.404822 26.152906 178.491663 -19.067318 -2.818032 -2.240247 9.400159 1.240011 -0.135985 0.542473 0.085323 -0.251173 0.964164 0.141287 -2.040858 8.666883 1.214007 0.409519 19.471297 -3.357575 1.235402 -5.062613 -3.696546 8.033558 1.519770 -12.061506 18.877157 -46.268124 -41.326966 171.574523 -76.907093 -177.863442 -15.683961 -16.757526 -28.835922 -2.815582 5.551333 7.621440 4.178745 -55.040224 16.819692 -152.429147 -69.602372 169.438758 7.982091 -19.956776 36.363661 14.539271 -59.841287 -13.275625 -130.186950 73.250383 -124.623733 -0.325154 -19.392145 5.794932 -0.006093 0.013617 -0.002767 -20.522321 -59.087743 13.778433 134.311969 78.556072 131.195320 -3.363780 -18.229433 -3.640318 -0.050681 0.028521 -0.023020
